<?xml version="1.0" standalone="no"?>
<!DOCTYPE svg PUBLIC "-//W3C//DTD SVG 20010904//EN"
 "http://www.w3.org/TR/2001/REC-SVG-20010904/DTD/svg10.dtd">
<svg version="1.0" xmlns="http://www.w3.org/2000/svg"
 width="512.000000pt" height="512.000000pt" viewBox="0 0 512.000000 512.000000"
 preserveAspectRatio="xMidYMid meet">

<g transform="translate(0.000000,512.000000) scale(0.100000,-0.100000)"
fill="#000000" stroke="none">
<path d="M1300 5104 c-107 -29 -199 -105 -248 -204 l-27 -55 -3 -450 c-2 -247
0 -460 3 -472 7 -29 40 -38 70 -19 l24 16 3 447 3 448 29 53 c17 30 47 67 67
83 72 57 87 59 486 59 l364 0 -3 -112 -3 -113 -364 -3 c-249 -1 -369 -6 -378
-13 -11 -9 -13 -127 -13 -635 0 -553 2 -624 16 -638 20 -20 48 -20 68 0 14 14
16 82 16 600 l0 584 330 0 330 0 14 -33 c16 -38 66 -84 104 -95 15 -4 176 -7
358 -7 l330 0 41 27 c24 16 48 43 59 67 l19 40 358 1 357 0 0 -883 c0 -673 3
-886 12 -895 7 -7 24 -12 38 -12 14 0 31 5 38 12 17 17 17 1849 0 1866 -9 9
-113 12 -405 12 l-393 0 0 115 0 115 389 0 c425 0 437 -1 510 -59 20 -16 50
-53 67 -83 l29 -53 3 -1237 2 -1238 -304 0 -305 0 -3 148 c-3 143 -2 150 34
281 51 184 64 301 49 427 -48 386 -312 701 -676 806 -68 20 -103 23 -235 23
-132 0 -167 -3 -235 -23 -183 -53 -354 -167 -470 -314 -116 -147 -184 -310
-206 -495 -15 -127 -3 -235 47 -415 34 -121 35 -133 37 -315 2 -160 5 -193 20
-221 25 -46 85 -72 167 -72 64 0 66 -1 77 -30 l11 -30 91 0 91 0 0 -409 c0
-359 2 -412 16 -425 20 -20 48 -20 68 0 14 13 16 65 16 419 l0 404 28 13 c23
11 28 20 32 68 l5 55 205 0 205 0 3 -50 c2 -27 8 -55 14 -62 8 -10 53 -13 170
-13 l160 0 11 30 c11 29 13 30 77 30 68 0 133 22 159 53 12 16 65 17 591 17
554 0 579 -1 601 -19 22 -18 24 -28 27 -131 l4 -111 -200 -202 c-148 -150
-203 -212 -213 -242 -11 -31 -14 -119 -14 -408 l0 -367 -961 0 c-902 0 -963
-1 -982 -17 -13 -12 -51 -113 -111 -295 -89 -268 -91 -278 -80 -322 15 -61 71
-112 131 -121 24 -3 617 -5 1319 -3 l1276 3 36 28 c85 65 86 115 7 352 -33 99
-60 182 -60 186 0 4 44 9 98 11 110 4 153 20 210 76 19 20 44 56 56 81 20 44
21 60 21 411 l0 365 -27 55 c-22 45 -62 87 -217 228 l-189 172 -4 133 c-3 127
-4 135 -30 169 -49 64 -69 68 -322 68 l-226 0 -2 1253 -3 1252 -27 55 c-50
102 -149 181 -257 206 -88 21 -2433 19 -2511 -2z m1468 -1204 c261 -73 470
-277 563 -548 33 -95 34 -101 33 -257 -1 -147 -3 -168 -30 -260 -17 -58 -35
-100 -42 -99 -7 1 -45 2 -86 3 -69 1 -75 3 -78 23 -5 38 -42 48 -184 48 -186
0 -173 18 -176 -250 l-3 -215 -205 0 -205 0 -3 215 c-3 268 10 250 -176 250
-142 0 -179 -10 -184 -48 -3 -20 -9 -22 -78 -23 -41 -1 -79 -2 -86 -3 -7 -1
-24 40 -41 99 -36 127 -47 312 -24 420 74 347 334 603 675 665 75 14 248 3
330 -20z m-778 -1445 l0 -176 -72 3 -73 3 -3 160 c-1 87 0 165 2 172 4 9 27
13 76 13 l70 0 0 -175z m1285 0 l0 -170 -72 -3 -73 -3 0 176 0 176 73 -3 72
-3 0 -170z m1416 -898 c39 -26 64 -84 55 -123 -4 -15 -22 -42 -41 -61 -28 -28
-40 -33 -78 -33 -38 0 -52 6 -81 34 -31 29 -36 39 -36 80 0 104 97 160 181
103z m-441 -927 c70 -50 109 -60 242 -60 l126 0 66 -198 c36 -108 66 -203 66
-211 0 -8 -7 -23 -17 -33 -15 -17 -69 -18 -1299 -18 -1153 0 -1284 2 -1298 16
-9 8 -16 23 -16 32 0 13 125 401 155 480 3 9 208 12 976 12 958 0 971 0 999
-20z"/>
<path d="M2606 414 c-9 -8 -16 -24 -16 -34 0 -10 7 -26 16 -34 14 -14 103 -16
829 -16 l815 0 16 25 c15 23 15 27 0 50 l-16 25 -815 0 c-726 0 -815 -2 -829
-16z"/>
<path d="M337 4772 c-12 -13 -17 -37 -17 -75 0 -50 3 -59 25 -73 21 -14 31
-15 50 -6 23 11 25 17 25 81 0 59 -3 72 -19 81 -28 15 -46 12 -64 -8z"/>
<path d="M125 4560 c-24 -26 -13 -68 23 -81 37 -15 94 -4 115 22 22 27 21 35
-3 59 -28 28 -110 28 -135 0z"/>
<path d="M486 4564 c-21 -20 -20 -58 1 -75 9 -8 37 -14 63 -14 26 0 54 6 63
14 23 19 22 68 -2 81 -30 16 -107 12 -125 -6z"/>
<path d="M336 4414 c-18 -18 -22 -95 -6 -125 12 -22 59 -26 78 -7 16 16 16
120 0 136 -17 17 -54 15 -72 -4z"/>
<path d="M1022 3697 c-51 -54 0 -129 71 -104 70 24 45 127 -31 127 -10 0 -28
-10 -40 -23z"/>
<path d="M440 3358 c-24 -13 -52 -34 -62 -48 -11 -15 -48 -160 -95 -366 l-76
-340 -43 -18 c-55 -22 -111 -78 -138 -135 -21 -45 -21 -58 -24 -740 -3 -792
-5 -766 74 -851 25 -27 65 -57 88 -66 l43 -18 76 -339 c85 -376 91 -392 170
-422 37 -14 86 -16 368 -13 l326 3 36 25 c20 14 43 39 52 55 9 17 47 172 86
345 38 173 72 323 75 332 3 9 20 22 38 28 50 16 111 74 140 132 26 52 26 53
26 305 l0 253 88 0 c132 0 127 -9 127 210 0 219 5 210 -127 210 l-88 0 0 253
c0 244 -1 254 -24 303 -26 56 -91 118 -142 134 -18 6 -35 19 -38 28 -3 9 -37
161 -76 337 -42 184 -80 334 -91 352 -11 17 -39 41 -63 52 -40 20 -59 21 -362
21 -312 0 -321 -1 -364 -22z m932 -858 c48 -14 97 -55 114 -97 20 -48 20
-1378 0 -1426 -16 -38 -66 -84 -104 -95 -15 -4 -282 -7 -593 -7 l-565 0 -41
27 c-77 51 -73 12 -73 788 0 618 2 696 16 726 18 37 59 71 102 84 41 12 1100
12 1144 0z m338 -810 l0 -100 -55 0 -55 0 0 100 0 100 55 0 55 0 0 -100z"/>
<path d="M678 2215 c-280 -69 -462 -349 -404 -625 57 -270 294 -455 561 -437
464 32 675 592 346 917 -137 136 -321 189 -503 145z m192 -96 c234 -38 400
-264 362 -494 -43 -260 -302 -425 -554 -351 -80 23 -173 89 -224 159 -94 127
-111 302 -44 442 69 145 214 242 380 254 8 0 44 -4 80 -10z"/>
<path d="M652 2004 c-22 -15 -22 -16 -22 -314 0 -293 0 -299 21 -314 13 -9 29
-12 41 -7 11 4 105 70 209 147 186 137 212 163 192 198 -11 20 -396 306 -412
306 -4 0 -17 -7 -29 -16z"/>
<path d="M4718 3369 c-15 -8 -18 -24 -18 -80 0 -64 2 -70 25 -81 19 -9 29 -8
50 6 22 14 25 23 25 75 0 78 -32 109 -82 80z"/>
<path d="M4508 3159 c-22 -12 -24 -62 -3 -79 22 -18 87 -22 115 -8 31 17 37
53 14 79 -19 21 -96 26 -126 8z"/>
<path d="M4859 3149 c-14 -14 -18 -27 -13 -42 8 -27 20 -35 61 -43 72 -14 129
41 88 86 -26 28 -107 28 -136 -1z"/>
<path d="M4712 3008 c-16 -16 -16 -120 0 -136 19 -19 66 -15 78 7 17 33 12
106 -8 124 -22 20 -53 22 -70 5z"/>
<path d="M3717 2718 c-27 -22 -31 -61 -7 -91 29 -36 71 -36 99 -1 25 32 26 52
5 82 -17 25 -69 30 -97 10z"/>
<path d="M2191 1054 c-24 -31 -25 -35 -9 -69 30 -66 142 -31 124 40 -15 59
-79 75 -115 29z"/>
</g>
</svg>
